<svg xmlns="http://www.w3.org/2000/svg" xmlns:xlink="http://www.w3.org/1999/xlink" width="500" zoomAndPan="magnify" viewBox="0 0 375 112.499997" height="150" preserveAspectRatio="xMidYMid meet" version="1.0"><defs><g/></defs><g fill="#71a89e" fill-opacity="1"><g transform="translate(14.971861, 93.04681)"><g><path d="M 11.546875 -33.1875 C 9.816406 -33.1875 8.328125 -34.503906 7.078125 -37.140625 C 5.828125 -39.773438 5.203125 -43 5.203125 -46.8125 L 5.203125 -68.4375 C 5.203125 -69.757812 8.84375 -72.03125 16.125 -75.25 C 23.40625 -78.476562 27.597656 -80.09375 28.703125 -80.09375 C 29.535156 -80.09375 30.71875 -78.707031 32.25 -75.9375 C 32.59375 -75.238281 33.09375 -74.300781 33.75 -73.125 C 34.40625 -71.945312 34.941406 -70.972656 35.359375 -70.203125 C 36.265625 -68.546875 37.410156 -67.71875 38.796875 -67.71875 L 38.796875 -65.640625 C 37.691406 -65.148438 36.203125 -64.421875 34.328125 -63.453125 C 29.953125 -61.023438 27.59375 -59.8125 27.25 -59.8125 C 26.207031 -59.8125 24.90625 -61.851562 23.34375 -65.9375 C 21.789062 -70.03125 20.53125 -72.078125 19.5625 -72.078125 C 18.3125 -72.078125 17.6875 -71.039062 17.6875 -68.96875 L 17.6875 -45.765625 C 17.6875 -42.992188 18.3125 -41.609375 19.5625 -41.609375 C 19.832031 -41.609375 21.976562 -42.507812 26 -44.3125 C 30.019531 -46.113281 32.445312 -47.015625 33.28125 -47.015625 C 34.945312 -47.015625 36.421875 -45.675781 37.703125 -43 C 38.984375 -40.332031 39.625 -36.921875 39.625 -32.765625 L 39.625 -10.609375 C 39.625 -9.296875 35.65625 -7.023438 27.71875 -3.796875 C 19.78125 -0.566406 15.222656 1.046875 14.046875 1.046875 C 13.554688 1.046875 13 0.457031 12.375 -0.71875 C 11.75 -1.90625 10.929688 -3.585938 9.921875 -5.765625 C 8.921875 -7.953125 8.019531 -9.773438 7.21875 -11.234375 C 6.425781 -12.691406 5.335938 -13.421875 3.953125 -13.421875 L 3.953125 -15.5 C 5.054688 -15.976562 6.515625 -16.707031 8.328125 -17.6875 C 12.765625 -20.113281 15.15625 -21.328125 15.5 -21.328125 C 16.539062 -21.328125 18.015625 -18.929688 19.921875 -14.140625 C 21.828125 -9.359375 23.265625 -6.96875 24.234375 -6.96875 C 24.929688 -6.96875 25.585938 -7.242188 26.203125 -7.796875 C 26.828125 -8.359375 27.140625 -9.125 27.140625 -10.09375 L 27.140625 -33.5 C 27.140625 -36.613281 26.273438 -38.171875 24.546875 -38.171875 C 23.992188 -38.171875 21.8125 -37.335938 18 -35.671875 C 14.1875 -34.015625 12.035156 -33.1875 11.546875 -33.1875 Z M 11.546875 -33.1875 "/></g></g></g><g fill="#71a89e" fill-opacity="1"><g transform="translate(59.175706, 93.04681)"><g><path d="M 17.6875 -52.21875 L 17.6875 -15.390625 C 17.6875 -11.160156 19.109375 -8.769531 21.953125 -8.21875 L 21.953125 -5.921875 L 11.4375 0 C 9.914062 -0.625 8.492188 -1.644531 7.171875 -3.0625 C 5.859375 -4.488281 5.203125 -5.828125 5.203125 -7.078125 L 5.203125 -43.890625 C 5.203125 -48.117188 3.78125 -50.515625 0.9375 -51.078125 L 0.9375 -53.359375 L 11.4375 -59.28125 C 12.96875 -58.664062 14.390625 -57.644531 15.703125 -56.21875 C 17.023438 -54.800781 17.6875 -53.46875 17.6875 -52.21875 Z M 3.640625 -72.296875 L 3.640625 -78.640625 C 3.640625 -78.847656 5.078125 -79.488281 7.953125 -80.5625 C 10.835938 -81.632812 12.503906 -82.171875 12.953125 -82.171875 C 13.398438 -82.171875 14.054688 -81.582031 14.921875 -80.40625 C 15.785156 -79.226562 16.21875 -78.015625 16.21875 -76.765625 L 16.21875 -69.171875 C 16.21875 -68.960938 14.832031 -68.320312 12.0625 -67.25 C 9.289062 -66.175781 7.59375 -65.640625 6.96875 -65.640625 C 6.34375 -65.640625 5.628906 -66.242188 4.828125 -67.453125 C 4.035156 -68.671875 3.640625 -70.285156 3.640625 -72.296875 Z M 3.640625 -72.296875 "/></g></g></g><g fill="#71a89e" fill-opacity="1"><g transform="translate(82.057696, 93.04681)"><g><path d="M 17.6875 -18.71875 C 17.6875 -12.613281 19.28125 -9.5625 22.46875 -9.5625 C 24.132812 -9.5625 25.660156 -10.117188 27.046875 -11.234375 L 27.046875 -37.234375 C 27.046875 -44.035156 25.796875 -47.882812 23.296875 -48.78125 C 22.117188 -49.195312 20.25 -49.40625 17.6875 -49.40625 Z M 39.625 -9.671875 C 39.625 -8.984375 35.789062 -7.195312 28.125 -4.3125 C 20.46875 -1.4375 15.769531 0 14.03125 0 C 12.300781 0 10.394531 -1.578125 8.3125 -4.734375 C 6.238281 -7.890625 5.203125 -11.375 5.203125 -15.1875 L 5.203125 -58.5625 C 5.203125 -60.4375 4.890625 -61.769531 4.265625 -62.5625 C 3.640625 -63.363281 2.566406 -63.765625 1.046875 -63.765625 L 1.046875 -66.671875 C 10.054688 -71.390625 18.097656 -75.828125 25.171875 -79.984375 L 26.84375 -76.65625 C 26.144531 -76.3125 25.171875 -75.632812 23.921875 -74.625 C 22.671875 -73.625 21.628906 -72.601562 20.796875 -71.5625 C 18.722656 -68.925781 17.6875 -65.945312 17.6875 -62.625 L 17.6875 -53.78125 C 24.820312 -57.445312 28.984375 -59.28125 30.171875 -59.28125 C 31.972656 -59.28125 34 -57.859375 36.25 -55.015625 C 38.5 -52.179688 39.625 -49.164062 39.625 -45.96875 Z M 39.625 -9.671875 "/></g></g></g><g fill="#71a89e" fill-opacity="1"><g transform="translate(126.781579, 93.04681)"><g><path d="M 30.6875 -59.28125 C 31.03125 -59.28125 31.894531 -58.742188 33.28125 -57.671875 C 34.664062 -56.597656 36.050781 -55.109375 37.4375 -53.203125 C 38.832031 -51.296875 39.53125 -49.441406 39.53125 -47.640625 L 39.53125 -30.171875 C 39.53125 -28.921875 37.691406 -27.394531 34.015625 -25.59375 C 30.335938 -23.789062 26.78125 -22.316406 23.34375 -21.171875 C 19.914062 -20.023438 18.0625 -19.453125 17.78125 -19.453125 C 17.78125 -14.109375 20.101562 -10.8125 24.75 -9.5625 C 27.039062 -9.007812 29.78125 -8.734375 32.96875 -8.734375 L 32.96875 -5.71875 C 21.601562 -1.90625 15.535156 0 14.765625 0 C 12.691406 0 10.578125 -1.472656 8.421875 -4.421875 C 6.273438 -7.367188 5.203125 -10.816406 5.203125 -14.765625 L 5.203125 -49.71875 C 5.203125 -50.207031 9.15625 -51.921875 17.0625 -54.859375 C 24.96875 -57.804688 29.507812 -59.28125 30.6875 -59.28125 Z M 27.046875 -42.75 C 27.046875 -44.6875 26.59375 -46.332031 25.6875 -47.6875 C 24.789062 -49.039062 23.644531 -49.71875 22.25 -49.71875 C 20.863281 -49.71875 19.34375 -49.195312 17.6875 -48.15625 L 17.6875 -24.125 C 23.925781 -25.863281 27.046875 -29.609375 27.046875 -35.359375 Z M 27.046875 -42.75 "/></g></g></g><g fill="#71a89e" fill-opacity="1"><g transform="translate(170.985424, 93.04681)"><g><path d="M 0.109375 -53.046875 L 11.546875 -59.28125 C 12.035156 -59.144531 12.609375 -58.957031 13.265625 -58.71875 C 13.921875 -58.476562 14.820312 -57.800781 15.96875 -56.6875 C 17.113281 -55.582031 17.6875 -54.332031 17.6875 -52.9375 C 18.03125 -53.082031 19.675781 -54.175781 22.625 -56.21875 C 25.570312 -58.257812 27.460938 -59.28125 28.296875 -59.28125 C 30.515625 -59.28125 32.59375 -57.820312 34.53125 -54.90625 C 36.476562 -52 37.453125 -49.332031 37.453125 -46.90625 L 37.453125 -41.8125 L 26.734375 -35.78125 L 24.96875 -37.234375 C 24.96875 -43.054688 24.410156 -46.382812 23.296875 -47.21875 C 22.046875 -48.125 20.175781 -48.578125 17.6875 -48.578125 L 17.6875 -15.390625 C 17.6875 -11.160156 19.109375 -8.769531 21.953125 -8.21875 L 21.953125 -5.921875 L 11.4375 0 C 9.914062 -0.625 8.492188 -1.644531 7.171875 -3.0625 C 5.859375 -4.488281 5.203125 -5.828125 5.203125 -7.078125 L 5.203125 -41.609375 C 5.203125 -44.660156 4.660156 -46.945312 3.578125 -48.46875 C 2.503906 -50 1.347656 -50.765625 0.109375 -50.765625 Z M 0.109375 -53.046875 "/></g></g></g><g fill="#404040" fill-opacity="1"><g transform="translate(205.607113, 91.134618)"><g><path d="M 18.390625 0 L 18.390625 -60.765625 L 5.578125 -56.3125 L 0 -69.125 L 20.625 -78.046875 L 38.46875 -78.046875 L 38.46875 0 Z M 18.390625 0 "/></g></g></g><g fill="#404040" fill-opacity="1"><g transform="translate(250.765781, 91.134618)"><g><path d="M 50.171875 -56.859375 C 50.171875 -61.328125 47.941406 -63.5625 43.484375 -63.5625 L 31.21875 -63.5625 C 26.757812 -63.5625 24.53125 -61.328125 24.53125 -56.859375 L 24.53125 -21.1875 C 24.53125 -16.726562 26.757812 -14.5 31.21875 -14.5 L 43.484375 -14.5 C 47.941406 -14.5 50.171875 -16.726562 50.171875 -21.1875 Z M 70.25 -21.1875 C 70.25 -13.382812 68.484375 -7.71875 64.953125 -4.1875 C 61.421875 -0.65625 55.75 1.109375 47.9375 1.109375 L 26.765625 1.109375 C 18.953125 1.109375 13.28125 -0.65625 9.75 -4.1875 C 6.21875 -7.71875 4.453125 -13.382812 4.453125 -21.1875 L 4.453125 -56.859375 C 4.453125 -64.671875 6.21875 -70.34375 9.75 -73.875 C 13.28125 -77.40625 18.953125 -79.171875 26.765625 -79.171875 L 47.9375 -79.171875 C 55.75 -79.171875 61.421875 -77.40625 64.953125 -73.875 C 68.484375 -70.34375 70.25 -64.671875 70.25 -56.859375 Z M 70.25 -21.1875 "/></g></g></g><g fill="#404040" fill-opacity="1"><g transform="translate(325.472705, 91.134618)"><g><path d="M 18.390625 0 L 18.390625 -60.765625 L 5.578125 -56.3125 L 0 -69.125 L 20.625 -78.046875 L 38.46875 -78.046875 L 38.46875 0 Z M 18.390625 0 "/></g></g></g></svg>